<svg xmlns="http://www.w3.org/2000/svg" xmlns:xlink="http://www.w3.org/1999/xlink" width="800" zoomAndPan="magnify" viewBox="0 0 600 599.999999" height="800" preserveAspectRatio="xMidYMid meet" version="1.0"><defs><g/><clipPath id="f4b6048b01"><rect x="0" width="398" y="0" height="531"/></clipPath></defs><rect x="-60" width="720" fill="#ffffff" y="-60" height="719.999999" fill-opacity="1"/><rect x="-60" width="720" fill="#ffffff" y="-60" height="719.999999" fill-opacity="1"/><g transform="matrix(1, 0, 0, 1, 104, 69)"><g clip-path="url(#f4b6048b01)"><g fill="#e30613" fill-opacity="1"><g transform="translate(8.342277, 444.865438)"><g><path d="M 240.269531 -264.492188 L 168.910156 -266.457031 L 172.183594 -276.277344 L 186.585938 -324.070312 L 197.058594 -358.769531 C 207.535156 -390.847656 207.535156 -390.847656 207.535156 -398.050781 C 207.535156 -409.179688 201.644531 -417.691406 189.859375 -422.925781 C 176.109375 -429.472656 150.578125 -435.367188 138.140625 -435.367188 C 123.734375 -435.367188 113.261719 -428.820312 107.367188 -415.726562 C 102.785156 -403.941406 80.527344 -334.542969 68.742188 -291.335938 L 62.851562 -271.695312 L 61.539062 -266.457031 L 56.304688 -266.457031 C 43.210938 -266.457031 35.351562 -263.183594 30.117188 -255.328125 C 21.605469 -242.234375 7.855469 -195.097656 7.855469 -178.074219 C 7.855469 -164.328125 13.75 -157.78125 31.425781 -154.507812 L 28.804688 -146.648438 C 25.53125 -132.902344 22.257812 -119.152344 18.332031 -106.058594 C 4.582031 -51.066406 1.964844 -40.589844 1.964844 -32.734375 C 1.964844 -24.878906 6.546875 -20.296875 20.949219 -14.402344 C 35.351562 -8.511719 57.613281 -3.929688 74.632812 -3.929688 C 85.765625 -3.929688 94.273438 -7.203125 99.511719 -14.402344 C 104.75 -20.949219 107.367188 -27.496094 114.570312 -58.921875 C 116.535156 -68.742188 119.808594 -82.492188 124.390625 -98.859375 C 132.902344 -132.902344 134.210938 -139.449219 137.484375 -154.507812 L 168.910156 -154.507812 C 191.167969 -153.851562 195.097656 -156.46875 214.738281 -188.550781 C 217.355469 -193.132812 219.972656 -198.371094 222.59375 -203.605469 C 223.246094 -204.261719 225.210938 -207.535156 227.175781 -211.464844 C 225.867188 -206.226562 223.902344 -199.023438 221.9375 -191.824219 C 214.738281 -168.253906 208.191406 -146.648438 201.644531 -122.425781 C 178.730469 -37.972656 178.730469 -37.972656 178.730469 -32.078125 C 178.730469 -13.75 202.296875 -4.582031 246.816406 -4.582031 C 274.3125 -4.582031 278.242188 -7.203125 287.40625 -37.972656 C 316.867188 -136.828125 381.027344 -383.644531 381.027344 -398.703125 C 381.027344 -407.871094 375.136719 -415.726562 364.660156 -420.964844 C 352.222656 -426.855469 315.558594 -435.367188 300.5 -435.367188 C 288.0625 -435.367188 285.441406 -431.4375 276.933594 -403.285156 L 267.113281 -367.277344 L 253.363281 -314.25 L 242.886719 -273.660156 Z M 240.269531 -264.492188 "/></g></g></g></g></g></svg>